<?xml version="1.0" encoding="UTF-8" standalone="no"?>
<!-- Created with Inkscape (http://www.inkscape.org/) -->

<svg
   xmlns:dc="http://purl.org/dc/elements/1.1/"
   xmlns:cc="http://creativecommons.org/ns#"
   xmlns:rdf="http://www.w3.org/1999/02/22-rdf-syntax-ns#"
   xmlns:svg="http://www.w3.org/2000/svg"
   xmlns="http://www.w3.org/2000/svg"
   xmlns:xlink="http://www.w3.org/1999/xlink"
   xmlns:sodipodi="http://sodipodi.sourceforge.net/DTD/sodipodi-0.dtd"
   xmlns:inkscape="http://www.inkscape.org/namespaces/inkscape"
   width="744.09448819"
   height="1052.3622047"
   id="svg2"
   version="1.1"
   inkscape:version="0.48.2 r9819"
   sodipodi:docname="propertyStateIcons.svg">
  <defs
     id="defs4">
    <linearGradient
       id="linearGradient3882">
      <stop
         style="stop-color:#000000;stop-opacity:1;"
         offset="0"
         id="stop3884" />
      <stop
         style="stop-color:#000000;stop-opacity:0;"
         offset="1"
         id="stop3886" />
    </linearGradient>
    <linearGradient
       id="linearGradient4203">
      <stop
         style="stop-color:#c0c0c0;stop-opacity:1;"
         offset="0"
         id="stop4205" />
      <stop
         style="stop-color:#f0f0f0;stop-opacity:1;"
         offset="1"
         id="stop4207" />
    </linearGradient>
    <marker
       inkscape:stockid="Arrow1Mend"
       orient="auto"
       refY="0.0"
       refX="0.0"
       id="Arrow1Mend"
       style="overflow:visible;">
      <path
         id="path3769"
         d="M 0.0,0.0 L 5.0,-5.0 L -12.5,0.0 L 5.0,5.0 L 0.0,0.0 z "
         style="fill-rule:evenodd;stroke:#000000;stroke-width:1.0pt;marker-start:none;"
         transform="scale(0.4) rotate(180) translate(10,0)" />
    </marker>
    <linearGradient
       inkscape:collect="always"
       xlink:href="#linearGradient4203"
       id="linearGradient4209"
       x1="255.46285"
       y1="453.79074"
       x2="398.82285"
       y2="453.79074"
       gradientUnits="userSpaceOnUse" />
    <linearGradient
       inkscape:collect="always"
       xlink:href="#linearGradient4203"
       id="linearGradient4240"
       gradientUnits="userSpaceOnUse"
       x1="255.46285"
       y1="453.79074"
       x2="398.82285"
       y2="453.79074" />
    <linearGradient
       inkscape:collect="always"
       xlink:href="#linearGradient4203"
       id="linearGradient4248"
       gradientUnits="userSpaceOnUse"
       x1="255.46285"
       y1="453.79074"
       x2="398.82285"
       y2="453.79074" />
    <linearGradient
       inkscape:collect="always"
       xlink:href="#linearGradient4203"
       id="linearGradient4256"
       gradientUnits="userSpaceOnUse"
       x1="255.46285"
       y1="453.79074"
       x2="398.82285"
       y2="453.79074" />
    <linearGradient
       inkscape:collect="always"
       xlink:href="#linearGradient4203"
       id="linearGradient3009"
       gradientUnits="userSpaceOnUse"
       x1="255.46285"
       y1="453.79074"
       x2="398.82285"
       y2="453.79074"
       gradientTransform="matrix(0,-0.89285714,0.89285714,0,-86.311819,750.95264)" />
    <linearGradient
       inkscape:collect="always"
       xlink:href="#linearGradient4203"
       id="linearGradient3013"
       gradientUnits="userSpaceOnUse"
       x1="255.46285"
       y1="453.79074"
       x2="398.82285"
       y2="453.79074" />
    <linearGradient
       inkscape:collect="always"
       xlink:href="#linearGradient4203"
       id="linearGradient3017"
       gradientUnits="userSpaceOnUse"
       x1="255.46285"
       y1="453.79074"
       x2="398.82285"
       y2="453.79074" />
    <linearGradient
       inkscape:collect="always"
       xlink:href="#linearGradient4203"
       id="linearGradient3039"
       gradientUnits="userSpaceOnUse"
       x1="255.46285"
       y1="453.79074"
       x2="398.82285"
       y2="453.79074" />
    <filter
       inkscape:collect="always"
       id="filter3829">
      <feGaussianBlur
         inkscape:collect="always"
         stdDeviation="2.1"
         id="feGaussianBlur3831" />
    </filter>
    <filter
       inkscape:collect="always"
       id="filter3866">
      <feGaussianBlur
         inkscape:collect="always"
         stdDeviation="5.6"
         id="feGaussianBlur3868" />
    </filter>
    <linearGradient
       inkscape:collect="always"
       xlink:href="#linearGradient4203"
       id="linearGradient3872"
       gradientUnits="userSpaceOnUse"
       gradientTransform="matrix(0,-0.89285714,0.89285714,0,-86.311819,743.20955)"
       x1="255.46283"
       y1="453.79074"
       x2="398.82285"
       y2="453.79074" />
    <linearGradient
       inkscape:collect="always"
       xlink:href="#linearGradient4203"
       id="linearGradient3888"
       x1="318.85849"
       y1="387.11774"
       x2="318.85849"
       y2="515.11774"
       gradientUnits="userSpaceOnUse" />
    <linearGradient
       inkscape:collect="always"
       xlink:href="#linearGradient4203"
       id="linearGradient3903"
       gradientUnits="userSpaceOnUse"
       gradientTransform="matrix(0,-0.89285714,0.89285714,0,-86.311819,743.20955)"
       x1="255.46283"
       y1="453.79074"
       x2="398.82285"
       y2="453.79074" />
    <linearGradient
       inkscape:collect="always"
       xlink:href="#linearGradient4203"
       id="linearGradient3905"
       gradientUnits="userSpaceOnUse"
       x1="318.85849"
       y1="387.11774"
       x2="318.85849"
       y2="515.11774" />
    <linearGradient
       inkscape:collect="always"
       xlink:href="#linearGradient4203"
       id="linearGradient3915"
       gradientUnits="userSpaceOnUse"
       gradientTransform="matrix(0,-0.89285714,0.89285714,0,-86.311819,743.20955)"
       x1="255.46283"
       y1="453.79074"
       x2="398.82285"
       y2="453.79074" />
    <linearGradient
       inkscape:collect="always"
       xlink:href="#linearGradient4203"
       id="linearGradient3917"
       gradientUnits="userSpaceOnUse"
       x1="318.85849"
       y1="387.11774"
       x2="318.85849"
       y2="515.11774" />
    <linearGradient
       inkscape:collect="always"
       xlink:href="#linearGradient4203"
       id="linearGradient3927"
       gradientUnits="userSpaceOnUse"
       gradientTransform="matrix(0,-0.89285714,0.89285714,0,-86.311819,743.20955)"
       x1="255.46283"
       y1="453.79074"
       x2="398.82285"
       y2="453.79074" />
    <linearGradient
       inkscape:collect="always"
       xlink:href="#linearGradient4203"
       id="linearGradient3929"
       gradientUnits="userSpaceOnUse"
       x1="318.85849"
       y1="387.11774"
       x2="318.85849"
       y2="515.11774" />
    <linearGradient
       inkscape:collect="always"
       xlink:href="#linearGradient4203"
       id="linearGradient3932"
       gradientUnits="userSpaceOnUse"
       gradientTransform="matrix(0,-0.89285714,0.89285714,0,54.826601,743.20955)"
       x1="255.46283"
       y1="453.79074"
       x2="398.82285"
       y2="453.79074" />
    <linearGradient
       inkscape:collect="always"
       xlink:href="#linearGradient4203"
       id="linearGradient3934"
       gradientUnits="userSpaceOnUse"
       x1="318.85849"
       y1="387.11774"
       x2="318.85849"
       y2="515.11774"
       gradientTransform="translate(141.13842,0)" />
    <linearGradient
       inkscape:collect="always"
       xlink:href="#linearGradient4203"
       id="linearGradient3939"
       gradientUnits="userSpaceOnUse"
       gradientTransform="matrix(0,-0.89285714,0.89285714,0,197.5873,744.83183)"
       x1="255.46283"
       y1="453.79074"
       x2="398.82285"
       y2="453.79074" />
    <linearGradient
       inkscape:collect="always"
       xlink:href="#linearGradient4203"
       id="linearGradient3941"
       gradientUnits="userSpaceOnUse"
       x1="318.85849"
       y1="387.11774"
       x2="318.85849"
       y2="515.11774"
       gradientTransform="translate(283.89912,1.6222807)" />
    <linearGradient
       inkscape:collect="always"
       xlink:href="#linearGradient4203"
       id="linearGradient3946"
       gradientUnits="userSpaceOnUse"
       gradientTransform="matrix(0,-0.89285714,0.89285714,0,341.97028,746.45411)"
       x1="255.46283"
       y1="453.79074"
       x2="398.82285"
       y2="453.79074" />
    <linearGradient
       inkscape:collect="always"
       xlink:href="#linearGradient4203"
       id="linearGradient3948"
       gradientUnits="userSpaceOnUse"
       x1="318.85849"
       y1="387.11774"
       x2="318.85849"
       y2="515.11774"
       gradientTransform="translate(428.2821,3.2445614)" />
    <linearGradient
       inkscape:collect="always"
       xlink:href="#linearGradient4203"
       id="linearGradient3967"
       gradientUnits="userSpaceOnUse"
       gradientTransform="matrix(0,-0.89285714,0.89285714,0,54.826601,743.20955)"
       x1="255.46283"
       y1="453.79074"
       x2="398.82285"
       y2="453.79074" />
    <linearGradient
       inkscape:collect="always"
       xlink:href="#linearGradient4203"
       id="linearGradient3969"
       gradientUnits="userSpaceOnUse"
       gradientTransform="translate(141.13842,0)"
       x1="318.85849"
       y1="387.11774"
       x2="318.85849"
       y2="515.11774" />
    <linearGradient
       inkscape:collect="always"
       xlink:href="#linearGradient4203"
       id="linearGradient3971"
       gradientUnits="userSpaceOnUse"
       gradientTransform="matrix(0,-0.89285714,0.89285714,0,-86.311819,743.20955)"
       x1="255.46283"
       y1="453.79074"
       x2="398.82285"
       y2="453.79074" />
    <linearGradient
       inkscape:collect="always"
       xlink:href="#linearGradient4203"
       id="linearGradient3973"
       gradientUnits="userSpaceOnUse"
       x1="318.85849"
       y1="387.11774"
       x2="318.85849"
       y2="515.11774" />
    <linearGradient
       inkscape:collect="always"
       xlink:href="#linearGradient4203"
       id="linearGradient3975"
       gradientUnits="userSpaceOnUse"
       gradientTransform="matrix(0,-0.89285714,0.89285714,0,341.97028,746.45411)"
       x1="255.46283"
       y1="453.79074"
       x2="398.82285"
       y2="453.79074" />
    <linearGradient
       inkscape:collect="always"
       xlink:href="#linearGradient4203"
       id="linearGradient3977"
       gradientUnits="userSpaceOnUse"
       gradientTransform="translate(428.2821,3.2445614)"
       x1="318.85849"
       y1="387.11774"
       x2="318.85849"
       y2="515.11774" />
    <linearGradient
       inkscape:collect="always"
       xlink:href="#linearGradient4203"
       id="linearGradient3979"
       gradientUnits="userSpaceOnUse"
       gradientTransform="matrix(0,-0.89285714,0.89285714,0,197.5873,744.83183)"
       x1="255.46283"
       y1="453.79074"
       x2="398.82285"
       y2="453.79074" />
    <linearGradient
       inkscape:collect="always"
       xlink:href="#linearGradient4203"
       id="linearGradient3981"
       gradientUnits="userSpaceOnUse"
       gradientTransform="translate(283.89912,1.6222807)"
       x1="318.85849"
       y1="387.11774"
       x2="318.85849"
       y2="515.11774" />
  </defs>
  <sodipodi:namedview
     id="base"
     pagecolor="#ffffff"
     bordercolor="#666666"
     borderopacity="1.0"
     inkscape:pageopacity="0.0"
     inkscape:pageshadow="2"
     inkscape:zoom="0.61641614"
     inkscape:cx="571.69344"
     inkscape:cy="594.69179"
     inkscape:document-units="px"
     inkscape:current-layer="layer1"
     showgrid="false"
     inkscape:window-width="769"
     inkscape:window-height="668"
     inkscape:window-x="178"
     inkscape:window-y="73"
     inkscape:window-maximized="0" />
  <metadata
     id="metadata7">
    <rdf:RDF>
      <cc:Work
         rdf:about="">
        <dc:format>image/svg+xml</dc:format>
        <dc:type
           rdf:resource="http://purl.org/dc/dcmitype/StillImage" />
        <dc:title></dc:title>
      </cc:Work>
    </rdf:RDF>
  </metadata>
  <g
     inkscape:label="Layer 1"
     inkscape:groupmode="layer"
     id="layer1">
    <g
       id="g3890"
       transform="translate(0,1.62228)"
       inkscape:export-filename="/home/zerjillo/INDIforJava/I4JAndroidUI/res/drawable/ic_ok.png"
       inkscape:export-xdpi="42.200001"
       inkscape:export-ydpi="42.200001">
      <path
         transform="matrix(0.42857143,0,0,0.42857143,178.63967,256.65016)"
         sodipodi:type="arc"
         style="fill:#00e000;fill-opacity:1;stroke:#c0c0c0;stroke-width:0;stroke-miterlimit:4;stroke-opacity:1;stroke-dasharray:none"
         id="path4201"
         sodipodi:cx="327.14285"
         sodipodi:cy="453.79074"
         sodipodi:rx="70"
         sodipodi:ry="70"
         d="m 397.14285,453.79074 c 0,38.65993 -31.34006,70 -70,70 -38.65993,0 -70,-31.34007 -70,-70 0,-38.65993 31.34007,-70 70,-70 38.65994,0 70,31.34007 70,70 z" />
      <path
         d="m 397.14285,453.79074 c 0,38.65993 -31.34006,70 -70,70 -38.65993,0 -70,-31.34007 -70,-70 0,-38.65993 31.34007,-70 70,-70 38.65994,0 70,31.34007 70,70 z"
         sodipodi:ry="70"
         sodipodi:rx="70"
         sodipodi:cy="453.79074"
         sodipodi:cx="327.14285"
         id="path3836"
         style="fill:none;stroke:#000000;stroke-width:19.64912224;stroke-miterlimit:4;stroke-opacity:0.50196078;stroke-dasharray:none;filter:url(#filter3866)"
         sodipodi:type="arc"
         transform="matrix(0.40714286,0,0,0.40714286,185.64987,266.37424)" />
      <path
         inkscape:connector-curvature="0"
         id="path2985"
         d="m 318.84375,388.63191 c -34.5178,0 -62.5,27.9822 -62.5,62.5 0,34.5178 27.9822,62.5 62.5,62.5 34.5178,0 62.5,-27.9822 62.5,-62.5 0,-34.5178 -27.9822,-62.5 -62.5,-62.5 z m 0,34 c 15.74012,0 28.5,12.75988 28.5,28.5 0,15.74012 -12.75988,28.5 -28.5,28.5 -15.74012,0 -28.5,-12.75988 -28.5,-28.5 0,-15.74012 12.75988,-28.5 28.5,-28.5 z"
         style="fill:url(#linearGradient3971);fill-opacity:1;stroke:url(#linearGradient3973);stroke-width:2.5;stroke-miterlimit:4;stroke-dasharray:none" />
    </g>
    <g
       id="g3952"
       transform="translate(1.6222812,1.62228)"
       inkscape:export-filename="/home/zerjillo/INDIforJava/I4JAndroidUI/res/drawable/ic_alert.png"
       inkscape:export-xdpi="42.200001"
       inkscape:export-ydpi="42.200001">
      <path
         d="m 397.14285,453.79074 c 0,38.65993 -31.34006,70 -70,70 -38.65993,0 -70,-31.34007 -70,-70 0,-38.65993 31.34007,-70 70,-70 38.65994,0 70,31.34007 70,70 z"
         sodipodi:ry="70"
         sodipodi:rx="70"
         sodipodi:cy="453.79074"
         sodipodi:cx="327.14285"
         id="path3897"
         style="fill:#f00000;fill-opacity:1;stroke:#c0c0c0;stroke-width:0;stroke-miterlimit:4;stroke-opacity:1;stroke-dasharray:none"
         sodipodi:type="arc"
         transform="matrix(0.42857143,0,0,0.42857143,319.77809,256.65016)" />
      <path
         transform="matrix(0.40714286,0,0,0.40714286,326.78829,266.37424)"
         sodipodi:type="arc"
         style="fill:none;stroke:#000000;stroke-width:19.64912224;stroke-miterlimit:4;stroke-opacity:0.50196078;stroke-dasharray:none;filter:url(#filter3866)"
         id="path3899"
         sodipodi:cx="327.14285"
         sodipodi:cy="453.79074"
         sodipodi:rx="70"
         sodipodi:ry="70"
         d="m 397.14285,453.79074 c 0,38.65993 -31.34006,70 -70,70 -38.65993,0 -70,-31.34007 -70,-70 0,-38.65993 31.34007,-70 70,-70 38.65994,0 70,31.34007 70,70 z" />
      <path
         style="fill:url(#linearGradient3967);fill-opacity:1;stroke:url(#linearGradient3969);stroke-width:2.5;stroke-miterlimit:4;stroke-dasharray:none"
         d="m 459.98217,388.63191 c -34.5178,0 -62.5,27.9822 -62.5,62.5 0,34.5178 27.9822,62.5 62.5,62.5 34.5178,0 62.5,-27.9822 62.5,-62.5 0,-34.5178 -27.9822,-62.5 -62.5,-62.5 z m 0,34 c 15.74012,0 28.5,12.75988 28.5,28.5 0,15.74012 -12.75988,28.5 -28.5,28.5 -15.74012,0 -28.5,-12.75988 -28.5,-28.5 0,-15.74012 12.75988,-28.5 28.5,-28.5 z"
         id="path3901"
         inkscape:connector-curvature="0" />
    </g>
    <g
       id="g3957"
       transform="translate(1.6222623,0)"
       inkscape:export-filename="/home/zerjillo/INDIforJava/I4JAndroidUI/res/drawable/ic_busy.png"
       inkscape:export-xdpi="42.200001"
       inkscape:export-ydpi="42.200001">
      <path
         transform="matrix(0.42857143,0,0,0.42857143,462.53879,258.27244)"
         sodipodi:type="arc"
         style="fill:#ffe000;fill-opacity:1;stroke:#c0c0c0;stroke-width:0;stroke-miterlimit:4;stroke-opacity:1;stroke-dasharray:none"
         id="path3909"
         sodipodi:cx="327.14285"
         sodipodi:cy="453.79074"
         sodipodi:rx="70"
         sodipodi:ry="70"
         d="m 397.14285,453.79074 c 0,38.65993 -31.34006,70 -70,70 -38.65993,0 -70,-31.34007 -70,-70 0,-38.65993 31.34007,-70 70,-70 38.65994,0 70,31.34007 70,70 z" />
      <path
         d="m 397.14285,453.79074 c 0,38.65993 -31.34006,70 -70,70 -38.65993,0 -70,-31.34007 -70,-70 0,-38.65993 31.34007,-70 70,-70 38.65994,0 70,31.34007 70,70 z"
         sodipodi:ry="70"
         sodipodi:rx="70"
         sodipodi:cy="453.79074"
         sodipodi:cx="327.14285"
         id="path3911"
         style="fill:none;stroke:#000000;stroke-width:19.64912224;stroke-miterlimit:4;stroke-opacity:0.50196078;stroke-dasharray:none;filter:url(#filter3866)"
         sodipodi:type="arc"
         transform="matrix(0.40714286,0,0,0.40714286,469.54899,267.99652)" />
      <path
         inkscape:connector-curvature="0"
         id="path3913"
         d="m 602.74287,390.25419 c -34.5178,0 -62.5,27.9822 -62.5,62.5 0,34.5178 27.9822,62.5 62.5,62.5 34.5178,0 62.5,-27.9822 62.5,-62.5 0,-34.5178 -27.9822,-62.5 -62.5,-62.5 z m 0,34 c 15.74012,0 28.5,12.75988 28.5,28.5 0,15.74012 -12.75988,28.5 -28.5,28.5 -15.74012,0 -28.5,-12.75988 -28.5,-28.5 0,-15.74012 12.75988,-28.5 28.5,-28.5 z"
         style="fill:url(#linearGradient3979);fill-opacity:1;stroke:url(#linearGradient3981);stroke-width:2.5;stroke-miterlimit:4;stroke-dasharray:none" />
    </g>
    <g
       id="g3962"
       transform="translate(-3.6515808e-5,-1.62228)"
       inkscape:export-filename="/home/zerjillo/INDIforJava/I4JAndroidUI/res/drawable/ic_idle.png"
       inkscape:export-xdpi="42.200001"
       inkscape:export-ydpi="42.200001">
      <path
         d="m 397.14285,453.79074 c 0,38.65993 -31.34006,70 -70,70 -38.65993,0 -70,-31.34007 -70,-70 0,-38.65993 31.34007,-70 70,-70 38.65994,0 70,31.34007 70,70 z"
         sodipodi:ry="70"
         sodipodi:rx="70"
         sodipodi:cy="453.79074"
         sodipodi:cx="327.14285"
         id="path3921"
         style="fill:#d0d0d0;fill-opacity:1;stroke:#c0c0c0;stroke-width:0;stroke-miterlimit:4;stroke-opacity:1;stroke-dasharray:none"
         sodipodi:type="arc"
         transform="matrix(0.42857143,0,0,0.42857143,606.92177,259.89472)" />
      <path
         transform="matrix(0.40714286,0,0,0.40714286,613.93197,269.6188)"
         sodipodi:type="arc"
         style="fill:none;stroke:#000000;stroke-width:19.64912224;stroke-miterlimit:4;stroke-opacity:0.50196078;stroke-dasharray:none;filter:url(#filter3866)"
         id="path3923"
         sodipodi:cx="327.14285"
         sodipodi:cy="453.79074"
         sodipodi:rx="70"
         sodipodi:ry="70"
         d="m 397.14285,453.79074 c 0,38.65993 -31.34006,70 -70,70 -38.65993,0 -70,-31.34007 -70,-70 0,-38.65993 31.34007,-70 70,-70 38.65994,0 70,31.34007 70,70 z" />
      <path
         style="fill:url(#linearGradient3975);fill-opacity:1;stroke:url(#linearGradient3977);stroke-width:2.5;stroke-miterlimit:4;stroke-dasharray:none"
         d="m 747.12585,391.87647 c -34.5178,0 -62.5,27.9822 -62.5,62.5 0,34.5178 27.9822,62.5 62.5,62.5 34.5178,0 62.5,-27.9822 62.5,-62.5 0,-34.5178 -27.9822,-62.5 -62.5,-62.5 z m 0,34 c 15.74012,0 28.5,12.75988 28.5,28.5 0,15.74012 -12.75988,28.5 -28.5,28.5 -15.74012,0 -28.5,-12.75988 -28.5,-28.5 0,-15.74012 12.75988,-28.5 28.5,-28.5 z"
         id="path3925"
         inkscape:connector-curvature="0" />
    </g>
  </g>
</svg>
